<svg width="122" height="51" viewBox="0 0 122 51" fill="none" xmlns="http://www.w3.org/2000/svg">
<path d="M0 38.6849C0 38.6849 61.2615 11.3811 106.247 23.3757C116.201 15.5106 122 10.3465 122 10.3465C122 10.3465 42.3885 0.833198 0 38.6849Z" fill="#022949"/>
<path d="M17.304 19.7591C17.304 19.7591 51.0956 5.38384 76.804 6.30861C73.2808 3.82729 68.1978 -4.1998e-06 68.1978 -4.1998e-06C68.1978 -4.1998e-06 43.9483 -0.613469 17.304 19.7591Z" fill="#022949"/>
<path d="M45.5998 47.072C45.5998 47.072 49.4349 51 58.2429 51C67.8858 51 78.7673 41.2761 92.8601 41.2761C91.8784 40.2964 81.7676 38.3828 72.6476 41.2761C63.5277 44.1695 56.2795 50.4781 45.5998 47.072Z" fill="#6996FF"/>
<path d="M74.758 33.7039H74.7029C75.7948 33.7039 76.6756 32.825 76.6756 31.7354C76.6756 30.6458 75.7948 29.7668 74.7029 29.7668H72.7395H72.6386H70.6659V37.9341H72.6386H72.7395H74.758C75.9324 37.9341 76.8774 36.9819 76.8774 35.819C76.8774 34.647 75.9324 33.7039 74.758 33.7039ZM72.7303 31.1402H73.8313C74.3635 31.1402 74.8038 31.5706 74.8038 32.1108C74.8038 32.651 74.3726 33.0813 73.8313 33.0813H72.7303V31.1402ZM74.8038 35.526C74.8038 36.0571 74.3726 36.4966 73.8313 36.4966H72.7303V34.2991H73.8313C74.3635 34.2991 74.8038 34.7294 74.8038 35.2697V35.526Z" fill="#02294A"/>
<path d="M82.0888 29.7668H80.9694C79.3547 29.7668 78.0426 31.0761 78.0426 32.6876V35.0224C78.0426 36.6339 79.3547 37.9433 80.9694 37.9433H82.0888C83.7036 37.9433 85.0156 36.6339 85.0156 35.0224V32.6876C85.0156 31.0761 83.7036 29.7668 82.0888 29.7668ZM82.8778 35.4345C82.8778 36.1761 82.2815 36.7713 81.5383 36.7713C80.7951 36.7713 80.1987 36.1761 80.1987 35.4345V32.2756C80.1987 31.5339 80.7951 30.9388 81.5383 30.9388C82.2815 30.9388 82.8778 31.5339 82.8778 32.2756V35.4345Z" fill="#02294A"/>
<path d="M99.3194 29.7668H92.8694V31.4241H99.3194V29.7668Z" fill="#02294A"/>
<path d="M96.9247 29.7668H95.264V37.7052H96.9247V29.7668Z" fill="#02294A"/>
<path d="M90.8508 29.7668H89.5296H89.1443H87.8139L85.4926 37.7052H87.5111L87.9882 35.8282H90.6765L91.1536 37.7052H93.1813L90.8508 29.7668ZM88.3277 34.5005L89.1718 31.4241H89.4929L90.337 34.5005H88.3277Z" fill="#02294A"/>
<path d="M54.0316 37.8609H53.4628C53.3894 37.8609 53.3343 37.8151 53.316 37.7418L51.325 30.1788H51.0864L49.0954 37.7418C49.0771 37.8059 49.0129 37.8609 48.9486 37.8609H48.3798C48.3064 37.8609 48.2513 37.8151 48.233 37.7418L46.2145 30.0598C46.1961 29.9774 46.242 29.895 46.3246 29.8675C46.4071 29.84 46.4897 29.895 46.5172 29.9774L48.5082 37.5404H48.8385L50.8295 29.9774C50.8479 29.9133 50.9121 29.8583 50.9763 29.8583H51.4534C51.5268 29.8583 51.5819 29.9041 51.6002 29.9774L53.5912 37.5404H53.9215L55.9125 29.9774C55.9308 29.895 56.0226 29.84 56.1052 29.8675C56.1877 29.8858 56.2336 29.9774 56.2153 30.0598L54.1968 37.7418C54.1692 37.8151 54.105 37.8609 54.0316 37.8609Z" fill="#6996FF"/>
<path d="M35.3421 29.8675H32.4153C32.3327 29.8675 32.2593 29.9407 32.2593 30.0231V34.5005V37.7052C32.2593 37.7876 32.3327 37.8608 32.4153 37.8608C32.4979 37.8608 32.5713 37.7876 32.5713 37.7052V34.6562H35.3421C36.2872 34.6562 37.0487 33.8871 37.0487 32.9531V31.5797C37.0487 30.6366 36.2872 29.8675 35.3421 29.8675ZM36.7367 32.944C36.7367 33.7131 36.1128 34.3449 35.333 34.3449H32.5621V30.1788H35.333C36.1037 30.1788 36.7367 30.8014 36.7367 31.5797V32.944Z" fill="#6996FF"/>
<path d="M64.1058 37.8608C64.0232 37.8608 63.9498 37.7876 63.9498 37.7052V30.0231C63.9498 29.9407 64.0232 29.8675 64.1058 29.8675C64.1884 29.8675 64.2618 29.9407 64.2618 30.0231V37.7052C64.2618 37.7968 64.1884 37.8608 64.1058 37.8608Z" fill="#6996FF"/>
<path d="M41.8288 37.8608C40.2324 37.8608 38.9387 36.5698 38.9387 34.9766V32.7517C38.9387 31.1585 40.2324 29.8675 41.8288 29.8675C43.4253 29.8675 44.7189 31.1585 44.7189 32.7517V34.9766C44.7189 36.5698 43.4253 37.8608 41.8288 37.8608ZM41.8288 30.1788C40.4067 30.1788 39.2506 31.3325 39.2506 32.7517V34.9766C39.2506 36.3959 40.4067 37.5495 41.8288 37.5495C43.2509 37.5495 44.407 36.3959 44.407 34.9766V32.7517C44.407 31.3325 43.2509 30.1788 41.8288 30.1788Z" fill="#6996FF"/>
<path d="M62.2799 37.5495H58.9586C58.3805 37.5495 57.9126 37.0826 57.9126 36.5057V33.8871H61.5918C61.6744 33.8871 61.7478 33.8138 61.7478 33.7314C61.7478 33.649 61.6744 33.5758 61.5918 33.5758H57.9126V31.2135C57.9126 30.6366 58.3805 30.1696 58.9586 30.1696H62.2799C62.3625 30.1696 62.4359 30.0964 62.4359 30.014C62.4359 29.9316 62.3625 29.8583 62.2799 29.8583H58.9586C58.2154 29.8583 57.6098 30.4626 57.6098 31.2043V36.4966C57.6098 37.2382 58.2154 37.8517 58.9586 37.8517H62.2799C62.3625 37.8517 62.4359 37.7784 62.4359 37.696C62.4359 37.6136 62.3625 37.5495 62.2799 37.5495Z" fill="#6996FF"/>
<path d="M69.1245 37.6686C69.0511 37.3481 68.4731 34.9675 67.5647 34.2167C68.2437 33.9878 68.7391 33.3468 68.7391 32.596V31.5705C68.7391 30.6275 67.9684 29.8675 67.0326 29.8675H64.1057C64.0232 29.8675 63.9498 29.9407 63.9498 30.0231V34.1526C63.9498 34.235 64.0232 34.3082 64.1057 34.3082H67.0326C67.7574 34.3082 68.5189 36.4142 68.8217 37.7418C68.8401 37.8151 68.9043 37.8608 68.9777 37.8608C68.9869 37.8608 69.0052 37.8608 69.0144 37.8608C69.097 37.8425 69.1428 37.751 69.1245 37.6686ZM64.2617 30.1788H67.0326C67.8033 30.1788 68.4364 30.8014 68.4364 31.5797V32.6052C68.4364 33.3743 67.8124 34.0061 67.0326 34.0061H64.2617V30.1788Z" fill="#6996FF"/>
</svg>
